<svg width="98" height="98" viewBox="0 0 98 98" fill="none" xmlns="http://www.w3.org/2000/svg">
<path d="M24.5 0C21.1312 0 18.375 2.75625 18.375 6.125V91.875C18.375 95.2438 21.1312 98 24.5 98H85.75C89.1188 98 91.875 95.2438 91.875 91.875V24.5L67.375 0H24.5Z" fill="#E2E5E7"/>
<path d="M73.5 24.5H91.875L67.375 0V18.375C67.375 21.7437 70.1312 24.5 73.5 24.5Z" fill="#B0B7BD"/>
<path d="M91.875 42.875L73.5 24.5H91.875V42.875Z" fill="#CAD1D8"/>
<path d="M79.625 79.625C79.625 81.3094 78.2469 82.6875 76.5625 82.6875H9.1875C7.50312 82.6875 6.125 81.3094 6.125 79.625V49C6.125 47.3156 7.50312 45.9375 9.1875 45.9375H76.5625C78.2469 45.9375 79.625 47.3156 79.625 49V79.625Z" fill="#F15642"/>
<path d="M19.4744 58.025C19.4744 57.2165 20.1114 56.3345 21.1373 56.3345H26.7937C29.9787 56.3345 32.8452 58.466 32.8452 62.5513C32.8452 66.4223 29.9787 68.5783 26.7937 68.5783H22.7053V71.8123C22.7053 72.8903 22.0193 73.4998 21.1373 73.4998C20.3288 73.4998 19.4744 72.8903 19.4744 71.8123V58.025ZM22.7053 59.4184V65.5189H26.7937C28.4352 65.5189 29.7337 64.0703 29.7337 62.5513C29.7337 60.8394 28.4352 59.4184 26.7937 59.4184H22.7053Z" fill="white"/>
<path d="M37.6412 73.5C36.8327 73.5 35.9507 73.059 35.9507 71.9841V58.0742C35.9507 57.1952 36.8327 56.5552 37.6412 56.5552H43.2486C54.439 56.5552 54.194 73.5 43.4691 73.5H37.6412ZM39.1847 59.5442V70.5141H43.2486C49.8605 70.5141 50.1546 59.5442 43.2486 59.5442H39.1847Z" fill="white"/>
<path d="M58.163 59.7398V63.6323H64.4074C65.2894 63.6323 66.1714 64.5143 66.1714 65.3687C66.1714 66.1772 65.2894 66.8387 64.4074 66.8387H58.163V71.9806C58.163 72.8381 57.5535 73.4966 56.696 73.4966C55.618 73.4966 54.9596 72.8381 54.9596 71.9806V58.0708C54.9596 57.1918 55.6211 56.5518 56.696 56.5518H65.2925C66.3705 56.5518 67.0075 57.1918 67.0075 58.0708C67.0075 58.8548 66.3705 59.7368 65.2925 59.7368H58.163V59.7398Z" fill="white"/>
<path d="M76.5625 82.6875H18.375V85.75H76.5625C78.2469 85.75 79.625 84.3719 79.625 82.6875V79.625C79.625 81.3094 78.2469 82.6875 76.5625 82.6875Z" fill="#CAD1D8"/>
</svg>
